<mxfile host="app.diagrams.net" agent="Mozilla/5.0 (Windows NT 10.0; Win64; x64) AppleWebKit/537.36 (KHTML, like Gecko) Chrome/131.0.0.0 Safari/537.36" version="25.0.3">
  <diagram name="Page-1" id="F1OrWAeqOcIkO-vTeIi3">
    <mxGraphModel dx="574" dy="309" grid="1" gridSize="10" guides="1" tooltips="1" connect="1" arrows="1" fold="1" page="1" pageScale="1" pageWidth="827" pageHeight="1169" math="0" shadow="0">
      <root>
        <mxCell id="0" />
        <mxCell id="1" parent="0" />
        <mxCell id="vjWVR_lD4mVdvnqBtiA7-1" value="" style="rounded=1;whiteSpace=wrap;html=1;" vertex="1" parent="1">
          <mxGeometry x="230" y="70" width="120" height="60" as="geometry" />
        </mxCell>
        <mxCell id="vjWVR_lD4mVdvnqBtiA7-2" value="" style="rounded=1;whiteSpace=wrap;html=1;" vertex="1" parent="1">
          <mxGeometry x="230" y="140" width="120" height="60" as="geometry" />
        </mxCell>
        <mxCell id="vjWVR_lD4mVdvnqBtiA7-3" value="" style="rounded=1;whiteSpace=wrap;html=1;" vertex="1" parent="1">
          <mxGeometry x="90" y="70" width="130" height="130" as="geometry" />
        </mxCell>
        <mxCell id="vjWVR_lD4mVdvnqBtiA7-4" value="" style="endArrow=none;html=1;rounded=0;entryX=1;entryY=0.75;entryDx=0;entryDy=0;exitX=0;exitY=0.75;exitDx=0;exitDy=0;dashed=1;" edge="1" parent="1">
          <mxGeometry width="50" height="50" relative="1" as="geometry">
            <mxPoint x="232" y="115" as="sourcePoint" />
            <mxPoint x="352" y="115" as="targetPoint" />
          </mxGeometry>
        </mxCell>
        <mxCell id="vjWVR_lD4mVdvnqBtiA7-5" value="09.01.2025 7:30" style="rounded=0;whiteSpace=wrap;html=1;fillColor=none;strokeColor=none;fontColor=#CCCCCC;" vertex="1" parent="1">
          <mxGeometry x="231" y="118" width="120" height="10" as="geometry" />
        </mxCell>
        <mxCell id="vjWVR_lD4mVdvnqBtiA7-6" value="50%" style="rounded=0;whiteSpace=wrap;html=1;fillColor=none;strokeColor=none;fontColor=#000000;fontSize=23;" vertex="1" parent="1">
          <mxGeometry x="250" y="90" width="120" height="10" as="geometry" />
        </mxCell>
        <mxCell id="vjWVR_lD4mVdvnqBtiA7-7" value="" style="shape=image;verticalLabelPosition=bottom;labelBackgroundColor=default;verticalAlign=top;aspect=fixed;imageAspect=0;image=data:image/png,iVBORw0KGgoAAAANSUhEUgAAAKwAAADCCAYAAADUzynyAAAAAXNSR0IArs4c6QAAAARnQU1BAACxjwv8YQUAAAAJcEhZcwAADsMAAA7DAcdvqGQAABMCSURBVHhe7d17XFTV3sfx74wXRC4qikri3fSUHqqnMlOr17HMW6fsHC0rtdvJemX1ZE9eypOX08HE4wkVKRTyAoIgindRETERIQy56xFFCJRRBBFmQNAZ9vPHM9NDK8CZYfbaa+1Z7z9/y/5IP+Ketfdeo5EkSYIgcEJLDgSBZSJYgSsiWIErIliBKyJYgSsiWIErIliBKyJYgSsiWIErIliBKyJYgSsiWIErIliBKyJYgSsa8Xhh2xmNJpxIOYvwHfE4k3kedbfrf13r5e2F5555HG+/NgVDBvpCo9H85r8VbCOCbaO0jHwsWLYev1y5Ri79zoRxo+D/xRx49+hGLglWEsHaSZIk7NyfhAXL16Ox0frfwn6+vbB53d8xZKAvuSRYQQRrp/jEVHy44F82xWoxsJ8PIkOWo4+PN7kk3IP40GWHrLyLWLA82K5YAaCoRIf5y9ZDb6gjl4R7EMHaSHe9Ep99tRY1+lpyySYp6TlYuTYcRpOJXBJaIYK1gdFowtqNMSgsvkou2SUq7igSTqSTY6EVIlgrSZKEsG37sD0ugVyyW2OjhAXLg5GVd5FcEloggrXS4eNpCAiKIMdtVqOvxaeLA3FVd4NcEpohgrVCQWEJvvxniN0fsu6lqESHr1ZuRH3DHXJJIIhg70FvqMOyVT/g5q0acsmhEk/+jC3bD0LsMrZOBNsKo9EE/8AtSEnPIZdkERAUgcPH08ix0IQIthXxiamI3n2MHMumsVHCijVbcaWsnFwSzESwLcjKu4gv/UOo/xNdcuU6FiwPFjcVWiCCbYbeUAf/b7e0+eaAvVLScxC+I576XxYeiGAJluvW9Mxz5BJVq4MjxfVsM0SwhIQf0xGzh951a0saGyUErIsQ+7MEEWwT+f+53KaHWhytqESHhf8IRm3d/z8Q7uxEsGZ6Qx38A7cqdt3akuS0bESI69lfiWDNzwlsCN9Dbb/VVqu/i8KZzPPk2CmJYM3PCQT/sJMcM+PuXSMWLF8vrmdFsMBV3Q0ErItg5rq1JUUlOgSFxcJodO7nZ5062PqGO/hq5UYUlejIJSZtj0tANAM7GEpy2mAlScKW7QeRePJncolpAesinPr5WacNNjv/EoI37SLHzKvR12JV0DanvXXrlMFWVeuxZOVG5rawrJWSnoMN4XuccqvL6YI1mkxYvT4S2fmXyCWuBP+wE8dOniHHqud0wSacSEdU3FFyzJ3GRgn+325xuq0upwr2Slk5VqzZyvwWlrWKSnQIDIl2qq0upwm2vuEOlgSEouTKdXKJa7H7jjvVVpfTBBuxI567LSxrBayLQP5/LpNjVXKKYLPyLmJdaCw5Vo0afS38A7c6xVaX6oPVG+qwKmgbt1tY1kpJz0HkziOq3+pSdbCSJCF8RzyzT2E52poNMaq/C6bqYLPyLiJIxZcCpNv1DVih8ksD1QarN9RhReBW3K5vIJdULT3znKpfYFRlsJZLAaVfJFRKUGisai8NVBmss10KkNR8aaC6YJ31UoCk1ksDVQXr7JcCpJAtu7l/yIekqmDPXShCyJbd5Nhp1ehrsTo4UlWviasm2Nq6enyzNlz1NwhslZyWjahdR8gxt1QT7O5DPyI5LZscCwC+2xSHgsIScswlVQRbXKrD2g0x5Fgwu3mrBms2xKjiMUTugzUaTVgfthPlFVXkktDEoWOpiE9MJcfc4T7YpJQM7DqQRI4FgiRJCAyJhu56JbnEFa6DrarWIyg0VjVvEMitsPgqInfx/UQXt8FKkoSoXUdVt88ot7CIfVzftuU22IuXSxEWsY8cC/dwu74BQWGx3H7FEpfBGo0mrNkQI/tXEalV4smfEX+Mzw9gXAablJKhik+8SgoKi+XyAxh3wYoPWo7B6wcw7oKNjksQH7QcJCxiH/I4e9uWq2CLS3XYFHWAHAt2ul3fgO83x3F1B4ybYI0mE0LD94o7Wg4Wn5iKpJQMcswsboI9m30BMXsTybHQRo2NEoJCY1FVrSeXmMRFsPUNdxCydTfu3jWSS4IDZOdfwsGE0+SYSVwEe+LUWRxP5uefLR6Fhu9F2bUKcswc5oOtqtbju827uNt+4U1xqQ5RcUeZ/31mPtiDCafFNhYlkbFHcPFyKTlmCtPBll2rQGj4XnIsyOTmrRqEbdsPo4ndbS6mg43ZcwzFpXx8JZFaxB08gRyG/0VjNtjiUh2idvF/tDtv7t41ImzbPmZvJjAZrCRJ2Bp9SNwkUEh8YipSf84jx0xgMtiCwlLs3C9ee1FKY6OE0Ii9TD4zy1ywRpMJP0TuF+cLKOxkahZOnDpLjhXHXLDnC4qx73AyORYokyQJm7cfYO7UGKaCNZpM2Lh1j9Mf5MaKtIx8JCaz9UUmTAWbk38J8cfTyLGgoB8i9zN1bCczwRpNJmyOOiAecGFMVm4BklLYuZZlJtjzBcVI+NH5vjuVB5Gxh5m5lmUiWEmSsGNvorh2ZdRPZ8/hTNZ5cqwIJoItKCzFnkMnybHACEmSsClyPxP7skwEe+jYabHvyrjTZ3Jx7kIROaZO8WDLrlWIn64cuHvXiOjdxxR/kkvxYBNOpCv+RFZ/395YsfgDpB0Ow+WMXShIi8HR2LV45/UX0MmlI/nLqXF364xVS+ciLzkSxWfjkHJwA2ZOm0D+MmriE1NRWHSVHFOlkRR8xFxvqMPMD5cjK7eAXKLCtZMLApZ8iBcmjEU7bfN/dw21dVi5NgIRsYfJJVkNHdwXoYFfYEBfn9/MJUnCgaMp+OTLbxU5TOTT91/FvA9mkGNqmv9ToiQ7/yKyFTpJz9PDDZEhy/DSpKdbjBXmn3LLF72HBR/PJJdkM3RwX2wJ+up3sQKARqPBC8+PwcKPZ5FLVBxPzkB1jYEcU9Pyn5TMJEnCkaSfFHuH6IO3XsZ/+Q0jx81qp9Vi9iuTMPKRB8klh7PE2sfHm1z6lUajwbQ//wmDB/Qhl2SXe74QmQr9kIGSwV4pK8fRpJ/IMRW9e3rhxQljodFoyKUWebh3xqxXJ5Fjh7ImVovuXl0w4oHB5Fh2kiRh177jin34UizYjOwLuFZ+kxxT8dSoh+F7X09yfE8jH3nAqpjsYUusSkv9OQ9lOmVeCVck2IaGO9gTr9xW1rAh/W366Wrh6eHW7HVlW9kTa+XNauSdLyTHVNyovIXktCxyTIUiwZaWlSMz9wI5pmZgP/ui6+zaCb17epHjNrEnVkmSsHN/EgqLldtiSvjxDBoUuPOlSLA/ZeTjVrVynzSLSuzb9627Xe/Qyxh7YgWAw8fTEBAUQY6pysy9gNKycnIsO+rBNjTcUfyprAuXfrFrd6JGX+uwmxx2x5qYho8W/VuRPdimblUb8FNGPjmWHfVgr9+oUuzayyI5LQtX7PjpkJ55Hld1N8ixzdoS69xFq5l5BTs5LZv6bgH1YC8U/oIblbfIMVXXym9i35FTNv2U1RvqEBETT45tppZYASDn3CVUUP6zpB7sqbQccqSIkC27cTbHug9+psZGhO+IR3rmOXLJJmqKFeYHly4VXSHHsqIabHWNwepI5Fajr8UbHyzD3viTMDU2ksu/MtTWYenKUKwK2kYu2URtscK8W5F6hu6BG1QffjlXUIxp73yJ2trb5JKi+vv2xvtvTsW4px5DT+9uMN41orj0GqJ3JyBq19E2P7isxlgtxoz0Q9iaL9DZtRO5JAuqwR5OTMP7nweQY1VTc6ww3+beE74KPr26k0uyoHpJkKvw7gBtao8VACoqq+3acbEXtWAbGu4gn4FXLGhxhlhhfj2/oLCEHMuGWrB6Qx0Ki+l+olSKs8RqQfOEdGrBllfeQmWV+r/M2NlihflR0brbdM4toBbszapq1DFyGINcnDFWACivqGrzToq1qAVrMNy26c4Sb5w1VgDQG2rR0HCXHMuCWrBFJWXkSDWcOVYAqK6pRcVNOrdoqQVrYOxmgaM4e6wwn1lQX6+ySwLddWVeqZCTiPX/GE0mam/SUgtWbUSsyhDB2kHEqhxqwQ5S4B16OYhYf6+TS0d49+hGjmVBLdjWTlfhhYi1eRqNBlqt7W8h24NaRZ4ebuSIKyLWlrm4dIBrJxdyLAtqwfbyduzr0TSJWFvX2dWV2g8kasF28XRH+3btyDHzRKz31sOrC1w6diDHsqAWrJubK1w6KXfWqj1ErNbxcO+MDh3ak2NZUAu2h1cXdPFwJ8fMErFar3dPL2qvyFAL1q2zK/r1sf0ANiWIWG1z/6C+5Eg2FIPtZHMASlA6VlaPr2+NKoMFgAeGDiRHTFEyVtdOLli3Yh6S9gbjjWkT4NOrO9pptXBx6YhhQ/ph6fx3kZG4GbOmTyT/U0W5ubniPht/v9qCarD3D/IlR8xQMlaWj6+/l+7dPNGze1dyLJuWf3dkMKh/H3hT/J+zlpKxguHj660xfNggdO3qQY5lQzVYr26eGGDn2axyUTpWVo+vt9aIBwZR3V+nGqy7myuGDxtEjhWjdKxg9Ph6a2k0Gjw84n5yLCuqwQLA2FF+5EgRA/v5KB4rGDy+3hb39e6BIQPpfi6hHuywwf0Vv4719HDDGv95iscKxo6vt5Xfg0PQg/KfJfVge3l3U+TrepqaOvlpPDR8CDlulRyxgqHj6+3x1KiHqF6/QolgXVw6Yvwzj5NjqsY87mfTP8NyxQpGjq+3R9cu7nji0eHkWHbUgwWAJx4djq5d+HiuQM5YwcDx9fZ65I/D0NeOD4ttpUiwA/r54MnH/kiOqUk5k2PVTzW5Y4XCx9e3xdRJT8NFgVvFigTbvl07TB4/mhxTs+fQyXseYEYjVgsljq9vi949vfDoQ9bd6HA0RYIFgNGPjVDky31hvv77dHFgs9eAkiThYMJparFCgePr2+r5Pz1h196xI1A9gZsUGBKNNRtiyDE17m6dseTztzH5udFwd3PFVd0NfL85Dtt2HiF/KTVyH1/fVh06tMeOsH9afSvZ0RQNtrhUh+nvLEZ5RRW5JDBqyvjRWLfiM7RvT3c7y0KxSwKYf5pMfHYUORYYpdFo8MrU5xSLFUoHq9FoMGv6RHh19SSXBAaNe+pRjFJg77UpRYOF+Wn1qZOfJscCY7RaDd5+Tfm3HhQPVqPR4M0Zk9GT0lE3gn0mPfsknnxsBDmmTvFgAWBAXx/Mmf0SORYY4enhhrnv/FXRa1cLJoIFgGkvjrP5gRSBjjdnTMaDw9h4H4+ZYLt18cD8j2ZSO1RMsM7QwX3x9owpNj0sJCdmggWAsU/44a0ZU8ixoBCtVoMln7+L7l5dyCXFMBWsRqPBJ3NeEZcGjJj77jSMfYKNN0QsmAoW5kuDfyyaQ+00PKF5Y0b64f3ZU5m5FLBgLlgAeHjE/fjkvenkWKDE08MNi+e9CQ/3zuSS4pgMFgDefu0FvPaX8eRYkJlWq8GqpXMx/A/svN3cFLPBtm/fDovnvYUxI9m6hlK7hR/PwsRx7D7fwWywMB8Y8a9lH9n9Zqlgm9f+Mh5/m/kic9etTTEdLAD08fFG2Jov0c+3F7kkONDLU57Bks/fYeJuVmuYDxYAhgz0RdA3/yN2DmQyZqQfvl40h9qhxG3BRbAw7xxEfLdUROtgY0b6YcO/FzK5I9AcboKFOdrIkGXi+VkHeWb0I1zFCt6Chfl4nNhN/uKato1envIMQlYv4CpWKP1OV1vorldizmcrkXOu9de1hd97b9ZLWPTJLOY/YDWH22AB4Fa1AQu/DsbhxDRySWiGVqvBsvl/w+xXJzG9ddUaroMFAKPRhO83x2H1d1HkktCEV1dPBAd8jtEjlTtxxxG4D9bidHou5i5cjZu3asglpzdmpB/W+n9K7Ru35aSaYAHgRkUVFn+zEUeOi0sEmG9vL/hoJt59489cXq82R1XBwnzU0IGjKVj09fcw1NaRy07joeFDsMZ/Hgb1v49c4prqgrUw1NZh1fpIbI0+RC6pmrtbZ6z4+wd44fkxrX6FEq9UG6zFxculmL9sPTJzC8glVdFqNZj9ymTM/+h1uLvxtbdqC9UHC/NlQlbeRSwNCL3nMZs8mjltAv77/Ved4mwHpwjWwhJuYEg0fjydSS5zpZNLR8x6ZSLmzJ7qFKFaOFWwTZVdq8CmqP2I2HFY8SMsbdHftzc+fm86powfzcXTVY7mtMFaGI0mZOUVYPP2gzh07DQaG9n77ejezROv//V5zHh5PPr4eHN7l8oRnD7YpoxGE3LPF2Jv/EkcOpaK6zeU+1ohvweH4MWJYzHp2SedPtKmRLCtqK2rR2buBSSdOotTadkouFwiy0/gLp7uGPGHQXj6yYcx7qlHMah/H9Vs9DuaCNZGNfpa6K5X4kJhCfLOF6KqWo/cc4WorjGgoeEOKqt+e2tYq9WgZ49u0Gq1GNjvPvTz7YUHhw3EgL4+GDq4L3p4dRVx2kAEK3BFfbdCBFUTwQpcEcEKXBHBClwRwQpcEcEKXBHBClwRwQpcEcEKXBHBClwRwQpcEcEKXBHBClwRwQpcEcEKXBHBClwRwQpcEcEKXPlf/Na8dB/SjBIAAAAASUVORK5CYII=;" vertex="1" parent="1">
          <mxGeometry x="247" y="79" width="26.6" height="30" as="geometry" />
        </mxCell>
        <mxCell id="vjWVR_lD4mVdvnqBtiA7-8" value="" style="endArrow=none;html=1;rounded=0;entryX=1;entryY=0.75;entryDx=0;entryDy=0;exitX=0;exitY=0.75;exitDx=0;exitDy=0;" edge="1" parent="1">
          <mxGeometry width="50" height="50" relative="1" as="geometry">
            <mxPoint x="229" y="186" as="sourcePoint" />
            <mxPoint x="349" y="186" as="targetPoint" />
          </mxGeometry>
        </mxCell>
        <mxCell id="vjWVR_lD4mVdvnqBtiA7-9" value="09.01.2025 7:30" style="rounded=0;whiteSpace=wrap;html=1;fillColor=none;strokeColor=none;fontColor=#CCCCCC;" vertex="1" parent="1">
          <mxGeometry x="230" y="189" width="120" height="10" as="geometry" />
        </mxCell>
        <mxCell id="vjWVR_lD4mVdvnqBtiA7-10" value="" style="endArrow=none;html=1;rounded=0;entryX=1;entryY=0.75;entryDx=0;entryDy=0;exitX=0;exitY=0.75;exitDx=0;exitDy=0;" edge="1" parent="1">
          <mxGeometry width="50" height="50" relative="1" as="geometry">
            <mxPoint x="230" y="186" as="sourcePoint" />
            <mxPoint x="350" y="186" as="targetPoint" />
          </mxGeometry>
        </mxCell>
        <mxCell id="vjWVR_lD4mVdvnqBtiA7-11" value="890ppm" style="rounded=0;whiteSpace=wrap;html=1;fillColor=none;strokeColor=none;fontColor=#000000;fontSize=23;" vertex="1" parent="1">
          <mxGeometry x="243" y="161" width="120" height="10" as="geometry" />
        </mxCell>
        <mxCell id="vjWVR_lD4mVdvnqBtiA7-12" value="" style="shape=image;verticalLabelPosition=bottom;labelBackgroundColor=default;verticalAlign=top;aspect=fixed;imageAspect=0;image=data:image/png,iVBORw0KGgoAAAANSUhEUgAAAKwAAADCCAYAAADUzynyAAAAAXNSR0IArs4c6QAAAARnQU1BAACxjwv8YQUAAAAJcEhZcwAADsMAAA7DAcdvqGQAABMCSURBVHhe7d17XFTV3sfx74wXRC4qikri3fSUHqqnMlOr17HMW6fsHC0rtdvJemX1ZE9eypOX08HE4wkVKRTyAoIgindRETERIQy56xFFCJRRBBFmQNAZ9vPHM9NDK8CZYfbaa+1Z7z9/y/5IP+Ketfdeo5EkSYIgcEJLDgSBZSJYgSsiWIErIliBKyJYgSsiWIErIliBKyJYgSsiWIErIliBKyJYgSsiWIErIliBKyJYgSsa8Xhh2xmNJpxIOYvwHfE4k3kedbfrf13r5e2F5555HG+/NgVDBvpCo9H85r8VbCOCbaO0jHwsWLYev1y5Ri79zoRxo+D/xRx49+hGLglWEsHaSZIk7NyfhAXL16Ox0frfwn6+vbB53d8xZKAvuSRYQQRrp/jEVHy44F82xWoxsJ8PIkOWo4+PN7kk3IP40GWHrLyLWLA82K5YAaCoRIf5y9ZDb6gjl4R7EMHaSHe9Ep99tRY1+lpyySYp6TlYuTYcRpOJXBJaIYK1gdFowtqNMSgsvkou2SUq7igSTqSTY6EVIlgrSZKEsG37sD0ugVyyW2OjhAXLg5GVd5FcEloggrXS4eNpCAiKIMdtVqOvxaeLA3FVd4NcEpohgrVCQWEJvvxniN0fsu6lqESHr1ZuRH3DHXJJIIhg70FvqMOyVT/g5q0acsmhEk/+jC3bD0LsMrZOBNsKo9EE/8AtSEnPIZdkERAUgcPH08ix0IQIthXxiamI3n2MHMumsVHCijVbcaWsnFwSzESwLcjKu4gv/UOo/xNdcuU6FiwPFjcVWiCCbYbeUAf/b7e0+eaAvVLScxC+I576XxYeiGAJluvW9Mxz5BJVq4MjxfVsM0SwhIQf0xGzh951a0saGyUErIsQ+7MEEWwT+f+53KaHWhytqESHhf8IRm3d/z8Q7uxEsGZ6Qx38A7cqdt3akuS0bESI69lfiWDNzwlsCN9Dbb/VVqu/i8KZzPPk2CmJYM3PCQT/sJMcM+PuXSMWLF8vrmdFsMBV3Q0ErItg5rq1JUUlOgSFxcJodO7nZ5062PqGO/hq5UYUlejIJSZtj0tANAM7GEpy2mAlScKW7QeRePJncolpAesinPr5WacNNjv/EoI37SLHzKvR12JV0DanvXXrlMFWVeuxZOVG5rawrJWSnoMN4XuccqvL6YI1mkxYvT4S2fmXyCWuBP+wE8dOniHHqud0wSacSEdU3FFyzJ3GRgn+325xuq0upwr2Slk5VqzZyvwWlrWKSnQIDIl2qq0upwm2vuEOlgSEouTKdXKJa7H7jjvVVpfTBBuxI567LSxrBayLQP5/LpNjVXKKYLPyLmJdaCw5Vo0afS38A7c6xVaX6oPVG+qwKmgbt1tY1kpJz0HkziOq3+pSdbCSJCF8RzyzT2E52poNMaq/C6bqYLPyLiJIxZcCpNv1DVih8ksD1QarN9RhReBW3K5vIJdULT3znKpfYFRlsJZLAaVfJFRKUGisai8NVBmss10KkNR8aaC6YJ31UoCk1ksDVQXr7JcCpJAtu7l/yIekqmDPXShCyJbd5Nhp1ehrsTo4UlWviasm2Nq6enyzNlz1NwhslZyWjahdR8gxt1QT7O5DPyI5LZscCwC+2xSHgsIScswlVQRbXKrD2g0x5Fgwu3mrBms2xKjiMUTugzUaTVgfthPlFVXkktDEoWOpiE9MJcfc4T7YpJQM7DqQRI4FgiRJCAyJhu56JbnEFa6DrarWIyg0VjVvEMitsPgqInfx/UQXt8FKkoSoXUdVt88ot7CIfVzftuU22IuXSxEWsY8cC/dwu74BQWGx3H7FEpfBGo0mrNkQI/tXEalV4smfEX+Mzw9gXAablJKhik+8SgoKi+XyAxh3wYoPWo7B6wcw7oKNjksQH7QcJCxiH/I4e9uWq2CLS3XYFHWAHAt2ul3fgO83x3F1B4ybYI0mE0LD94o7Wg4Wn5iKpJQMcswsboI9m30BMXsTybHQRo2NEoJCY1FVrSeXmMRFsPUNdxCydTfu3jWSS4IDZOdfwsGE0+SYSVwEe+LUWRxP5uefLR6Fhu9F2bUKcswc5oOtqtbju827uNt+4U1xqQ5RcUeZ/31mPtiDCafFNhYlkbFHcPFyKTlmCtPBll2rQGj4XnIsyOTmrRqEbdsPo4ndbS6mg43ZcwzFpXx8JZFaxB08gRyG/0VjNtjiUh2idvF/tDtv7t41ImzbPmZvJjAZrCRJ2Bp9SNwkUEh8YipSf84jx0xgMtiCwlLs3C9ee1FKY6OE0Ii9TD4zy1ywRpMJP0TuF+cLKOxkahZOnDpLjhXHXLDnC4qx73AyORYokyQJm7cfYO7UGKaCNZpM2Lh1j9Mf5MaKtIx8JCaz9UUmTAWbk38J8cfTyLGgoB8i9zN1bCczwRpNJmyOOiAecGFMVm4BklLYuZZlJtjzBcVI+NH5vjuVB5Gxh5m5lmUiWEmSsGNvorh2ZdRPZ8/hTNZ5cqwIJoItKCzFnkMnybHACEmSsClyPxP7skwEe+jYabHvyrjTZ3Jx7kIROaZO8WDLrlWIn64cuHvXiOjdxxR/kkvxYBNOpCv+RFZ/395YsfgDpB0Ow+WMXShIi8HR2LV45/UX0MmlI/nLqXF364xVS+ciLzkSxWfjkHJwA2ZOm0D+MmriE1NRWHSVHFOlkRR8xFxvqMPMD5cjK7eAXKLCtZMLApZ8iBcmjEU7bfN/dw21dVi5NgIRsYfJJVkNHdwXoYFfYEBfn9/MJUnCgaMp+OTLbxU5TOTT91/FvA9mkGNqmv9ToiQ7/yKyFTpJz9PDDZEhy/DSpKdbjBXmn3LLF72HBR/PJJdkM3RwX2wJ+up3sQKARqPBC8+PwcKPZ5FLVBxPzkB1jYEcU9Pyn5TMJEnCkaSfFHuH6IO3XsZ/+Q0jx81qp9Vi9iuTMPKRB8klh7PE2sfHm1z6lUajwbQ//wmDB/Qhl2SXe74QmQr9kIGSwV4pK8fRpJ/IMRW9e3rhxQljodFoyKUWebh3xqxXJ5Fjh7ImVovuXl0w4oHB5Fh2kiRh177jin34UizYjOwLuFZ+kxxT8dSoh+F7X09yfE8jH3nAqpjsYUusSkv9OQ9lOmVeCVck2IaGO9gTr9xW1rAh/W366Wrh6eHW7HVlW9kTa+XNauSdLyTHVNyovIXktCxyTIUiwZaWlSMz9wI5pmZgP/ui6+zaCb17epHjNrEnVkmSsHN/EgqLldtiSvjxDBoUuPOlSLA/ZeTjVrVynzSLSuzb9627Xe/Qyxh7YgWAw8fTEBAUQY6pysy9gNKycnIsO+rBNjTcUfyprAuXfrFrd6JGX+uwmxx2x5qYho8W/VuRPdimblUb8FNGPjmWHfVgr9+oUuzayyI5LQtX7PjpkJ55Hld1N8ixzdoS69xFq5l5BTs5LZv6bgH1YC8U/oIblbfIMVXXym9i35FTNv2U1RvqEBETT45tppZYASDn3CVUUP6zpB7sqbQccqSIkC27cTbHug9+psZGhO+IR3rmOXLJJmqKFeYHly4VXSHHsqIabHWNwepI5Fajr8UbHyzD3viTMDU2ksu/MtTWYenKUKwK2kYu2URtscK8W5F6hu6BG1QffjlXUIxp73yJ2trb5JKi+vv2xvtvTsW4px5DT+9uMN41orj0GqJ3JyBq19E2P7isxlgtxoz0Q9iaL9DZtRO5JAuqwR5OTMP7nweQY1VTc6ww3+beE74KPr26k0uyoHpJkKvw7gBtao8VACoqq+3acbEXtWAbGu4gn4FXLGhxhlhhfj2/oLCEHMuGWrB6Qx0Ki+l+olSKs8RqQfOEdGrBllfeQmWV+r/M2NlihflR0brbdM4toBbszapq1DFyGINcnDFWACivqGrzToq1qAVrMNy26c4Sb5w1VgDQG2rR0HCXHMuCWrBFJWXkSDWcOVYAqK6pRcVNOrdoqQVrYOxmgaM4e6wwn1lQX6+ySwLddWVeqZCTiPX/GE0mam/SUgtWbUSsyhDB2kHEqhxqwQ5S4B16OYhYf6+TS0d49+hGjmVBLdjWTlfhhYi1eRqNBlqt7W8h24NaRZ4ebuSIKyLWlrm4dIBrJxdyLAtqwfbyduzr0TSJWFvX2dWV2g8kasF28XRH+3btyDHzRKz31sOrC1w6diDHsqAWrJubK1w6KXfWqj1ErNbxcO+MDh3ak2NZUAu2h1cXdPFwJ8fMErFar3dPL2qvyFAL1q2zK/r1sf0ANiWIWG1z/6C+5Eg2FIPtZHMASlA6VlaPr2+NKoMFgAeGDiRHTFEyVtdOLli3Yh6S9gbjjWkT4NOrO9pptXBx6YhhQ/ph6fx3kZG4GbOmTyT/U0W5ubniPht/v9qCarD3D/IlR8xQMlaWj6+/l+7dPNGze1dyLJuWf3dkMKh/H3hT/J+zlpKxguHj660xfNggdO3qQY5lQzVYr26eGGDn2axyUTpWVo+vt9aIBwZR3V+nGqy7myuGDxtEjhWjdKxg9Ph6a2k0Gjw84n5yLCuqwQLA2FF+5EgRA/v5KB4rGDy+3hb39e6BIQPpfi6hHuywwf0Vv4719HDDGv95iscKxo6vt5Xfg0PQg/KfJfVge3l3U+TrepqaOvlpPDR8CDlulRyxgqHj6+3x1KiHqF6/QolgXVw6Yvwzj5NjqsY87mfTP8NyxQpGjq+3R9cu7nji0eHkWHbUgwWAJx4djq5d+HiuQM5YwcDx9fZ65I/D0NeOD4ttpUiwA/r54MnH/kiOqUk5k2PVTzW5Y4XCx9e3xdRJT8NFgVvFigTbvl07TB4/mhxTs+fQyXseYEYjVgsljq9vi949vfDoQ9bd6HA0RYIFgNGPjVDky31hvv77dHFgs9eAkiThYMJparFCgePr2+r5Pz1h196xI1A9gZsUGBKNNRtiyDE17m6dseTztzH5udFwd3PFVd0NfL85Dtt2HiF/KTVyH1/fVh06tMeOsH9afSvZ0RQNtrhUh+nvLEZ5RRW5JDBqyvjRWLfiM7RvT3c7y0KxSwKYf5pMfHYUORYYpdFo8MrU5xSLFUoHq9FoMGv6RHh19SSXBAaNe+pRjFJg77UpRYOF+Wn1qZOfJscCY7RaDd5+Tfm3HhQPVqPR4M0Zk9GT0lE3gn0mPfsknnxsBDmmTvFgAWBAXx/Mmf0SORYY4enhhrnv/FXRa1cLJoIFgGkvjrP5gRSBjjdnTMaDw9h4H4+ZYLt18cD8j2ZSO1RMsM7QwX3x9owpNj0sJCdmggWAsU/44a0ZU8ixoBCtVoMln7+L7l5dyCXFMBWsRqPBJ3NeEZcGjJj77jSMfYKNN0QsmAoW5kuDfyyaQ+00PKF5Y0b64f3ZU5m5FLBgLlgAeHjE/fjkvenkWKDE08MNi+e9CQ/3zuSS4pgMFgDefu0FvPaX8eRYkJlWq8GqpXMx/A/svN3cFLPBtm/fDovnvYUxI9m6hlK7hR/PwsRx7D7fwWywMB8Y8a9lH9n9Zqlgm9f+Mh5/m/kic9etTTEdLAD08fFG2Jov0c+3F7kkONDLU57Bks/fYeJuVmuYDxYAhgz0RdA3/yN2DmQyZqQfvl40h9qhxG3BRbAw7xxEfLdUROtgY0b6YcO/FzK5I9AcboKFOdrIkGXi+VkHeWb0I1zFCt6Chfl4nNhN/uKato1envIMQlYv4CpWKP1OV1vorldizmcrkXOu9de1hd97b9ZLWPTJLOY/YDWH22AB4Fa1AQu/DsbhxDRySWiGVqvBsvl/w+xXJzG9ddUaroMFAKPRhO83x2H1d1HkktCEV1dPBAd8jtEjlTtxxxG4D9bidHou5i5cjZu3asglpzdmpB/W+n9K7Ru35aSaYAHgRkUVFn+zEUeOi0sEmG9vL/hoJt59489cXq82R1XBwnzU0IGjKVj09fcw1NaRy07joeFDsMZ/Hgb1v49c4prqgrUw1NZh1fpIbI0+RC6pmrtbZ6z4+wd44fkxrX6FEq9UG6zFxculmL9sPTJzC8glVdFqNZj9ymTM/+h1uLvxtbdqC9UHC/NlQlbeRSwNCL3nMZs8mjltAv77/Ved4mwHpwjWwhJuYEg0fjydSS5zpZNLR8x6ZSLmzJ7qFKFaOFWwTZVdq8CmqP2I2HFY8SMsbdHftzc+fm86powfzcXTVY7mtMFaGI0mZOUVYPP2gzh07DQaG9n77ejezROv//V5zHh5PPr4eHN7l8oRnD7YpoxGE3LPF2Jv/EkcOpaK6zeU+1ohvweH4MWJYzHp2SedPtKmRLCtqK2rR2buBSSdOotTadkouFwiy0/gLp7uGPGHQXj6yYcx7qlHMah/H9Vs9DuaCNZGNfpa6K5X4kJhCfLOF6KqWo/cc4WorjGgoeEOKqt+e2tYq9WgZ49u0Gq1GNjvPvTz7YUHhw3EgL4+GDq4L3p4dRVx2kAEK3BFfbdCBFUTwQpcEcEKXBHBClwRwQpcEcEKXBHBClwRwQpcEcEKXBHBClwRwQpcEcEKXBHBClwRwQpcEcEKXBHBClwRwQpcEcEKXPlf/Na8dB/SjBIAAAAASUVORK5CYII=;" vertex="1" parent="1">
          <mxGeometry x="236" y="150" width="26.6" height="30" as="geometry" />
        </mxCell>
        <mxCell id="vjWVR_lD4mVdvnqBtiA7-14" value="09.01.2025 7:30" style="rounded=0;whiteSpace=wrap;html=1;fillColor=none;strokeColor=none;fontColor=#CCCCCC;" vertex="1" parent="1">
          <mxGeometry x="95.5" y="186" width="120" height="10" as="geometry" />
        </mxCell>
        <mxCell id="vjWVR_lD4mVdvnqBtiA7-15" value="" style="endArrow=none;html=1;rounded=0;entryX=0.997;entryY=0.86;entryDx=0;entryDy=0;exitX=-0.009;exitY=0.866;exitDx=0;exitDy=0;exitPerimeter=0;entryPerimeter=0;" edge="1" parent="1" source="vjWVR_lD4mVdvnqBtiA7-3" target="vjWVR_lD4mVdvnqBtiA7-3">
          <mxGeometry width="50" height="50" relative="1" as="geometry">
            <mxPoint x="95.5" y="186" as="sourcePoint" />
            <mxPoint x="215.5" y="186" as="targetPoint" />
          </mxGeometry>
        </mxCell>
        <mxCell id="vjWVR_lD4mVdvnqBtiA7-17" value="21°C" style="rounded=0;whiteSpace=wrap;html=1;fillColor=none;strokeColor=none;fontColor=#000000;fontSize=40;" vertex="1" parent="1">
          <mxGeometry x="112" y="118.8" width="120" height="10" as="geometry" />
        </mxCell>
        <mxCell id="vjWVR_lD4mVdvnqBtiA7-18" value="" style="shape=image;verticalLabelPosition=bottom;labelBackgroundColor=default;verticalAlign=top;aspect=fixed;imageAspect=0;image=data:image/png,iVBORw0KGgoAAAANSUhEUgAAAKwAAADCCAYAAADUzynyAAAAAXNSR0IArs4c6QAAAARnQU1BAACxjwv8YQUAAAAJcEhZcwAADsMAAA7DAcdvqGQAABMCSURBVHhe7d17XFTV3sfx74wXRC4qikri3fSUHqqnMlOr17HMW6fsHC0rtdvJemX1ZE9eypOX08HE4wkVKRTyAoIgindRETERIQy56xFFCJRRBBFmQNAZ9vPHM9NDK8CZYfbaa+1Z7z9/y/5IP+Ketfdeo5EkSYIgcEJLDgSBZSJYgSsiWIErIliBKyJYgSsiWIErIliBKyJYgSsiWIErIliBKyJYgSsiWIErIliBKyJYgSsa8Xhh2xmNJpxIOYvwHfE4k3kedbfrf13r5e2F5555HG+/NgVDBvpCo9H85r8VbCOCbaO0jHwsWLYev1y5Ri79zoRxo+D/xRx49+hGLglWEsHaSZIk7NyfhAXL16Ox0frfwn6+vbB53d8xZKAvuSRYQQRrp/jEVHy44F82xWoxsJ8PIkOWo4+PN7kk3IP40GWHrLyLWLA82K5YAaCoRIf5y9ZDb6gjl4R7EMHaSHe9Ep99tRY1+lpyySYp6TlYuTYcRpOJXBJaIYK1gdFowtqNMSgsvkou2SUq7igSTqSTY6EVIlgrSZKEsG37sD0ugVyyW2OjhAXLg5GVd5FcEloggrXS4eNpCAiKIMdtVqOvxaeLA3FVd4NcEpohgrVCQWEJvvxniN0fsu6lqESHr1ZuRH3DHXJJIIhg70FvqMOyVT/g5q0acsmhEk/+jC3bD0LsMrZOBNsKo9EE/8AtSEnPIZdkERAUgcPH08ix0IQIthXxiamI3n2MHMumsVHCijVbcaWsnFwSzESwLcjKu4gv/UOo/xNdcuU6FiwPFjcVWiCCbYbeUAf/b7e0+eaAvVLScxC+I576XxYeiGAJluvW9Mxz5BJVq4MjxfVsM0SwhIQf0xGzh951a0saGyUErIsQ+7MEEWwT+f+53KaHWhytqESHhf8IRm3d/z8Q7uxEsGZ6Qx38A7cqdt3akuS0bESI69lfiWDNzwlsCN9Dbb/VVqu/i8KZzPPk2CmJYM3PCQT/sJMcM+PuXSMWLF8vrmdFsMBV3Q0ErItg5rq1JUUlOgSFxcJodO7nZ5062PqGO/hq5UYUlejIJSZtj0tANAM7GEpy2mAlScKW7QeRePJncolpAesinPr5WacNNjv/EoI37SLHzKvR12JV0DanvXXrlMFWVeuxZOVG5rawrJWSnoMN4XuccqvL6YI1mkxYvT4S2fmXyCWuBP+wE8dOniHHqud0wSacSEdU3FFyzJ3GRgn+325xuq0upwr2Slk5VqzZyvwWlrWKSnQIDIl2qq0upwm2vuEOlgSEouTKdXKJa7H7jjvVVpfTBBuxI567LSxrBayLQP5/LpNjVXKKYLPyLmJdaCw5Vo0afS38A7c6xVaX6oPVG+qwKmgbt1tY1kpJz0HkziOq3+pSdbCSJCF8RzyzT2E52poNMaq/C6bqYLPyLiJIxZcCpNv1DVih8ksD1QarN9RhReBW3K5vIJdULT3znKpfYFRlsJZLAaVfJFRKUGisai8NVBmss10KkNR8aaC6YJ31UoCk1ksDVQXr7JcCpJAtu7l/yIekqmDPXShCyJbd5Nhp1ehrsTo4UlWviasm2Nq6enyzNlz1NwhslZyWjahdR8gxt1QT7O5DPyI5LZscCwC+2xSHgsIScswlVQRbXKrD2g0x5Fgwu3mrBms2xKjiMUTugzUaTVgfthPlFVXkktDEoWOpiE9MJcfc4T7YpJQM7DqQRI4FgiRJCAyJhu56JbnEFa6DrarWIyg0VjVvEMitsPgqInfx/UQXt8FKkoSoXUdVt88ot7CIfVzftuU22IuXSxEWsY8cC/dwu74BQWGx3H7FEpfBGo0mrNkQI/tXEalV4smfEX+Mzw9gXAablJKhik+8SgoKi+XyAxh3wYoPWo7B6wcw7oKNjksQH7QcJCxiH/I4e9uWq2CLS3XYFHWAHAt2ul3fgO83x3F1B4ybYI0mE0LD94o7Wg4Wn5iKpJQMcswsboI9m30BMXsTybHQRo2NEoJCY1FVrSeXmMRFsPUNdxCydTfu3jWSS4IDZOdfwsGE0+SYSVwEe+LUWRxP5uefLR6Fhu9F2bUKcswc5oOtqtbju827uNt+4U1xqQ5RcUeZ/31mPtiDCafFNhYlkbFHcPFyKTlmCtPBll2rQGj4XnIsyOTmrRqEbdsPo4ndbS6mg43ZcwzFpXx8JZFaxB08gRyG/0VjNtjiUh2idvF/tDtv7t41ImzbPmZvJjAZrCRJ2Bp9SNwkUEh8YipSf84jx0xgMtiCwlLs3C9ee1FKY6OE0Ii9TD4zy1ywRpMJP0TuF+cLKOxkahZOnDpLjhXHXLDnC4qx73AyORYokyQJm7cfYO7UGKaCNZpM2Lh1j9Mf5MaKtIx8JCaz9UUmTAWbk38J8cfTyLGgoB8i9zN1bCczwRpNJmyOOiAecGFMVm4BklLYuZZlJtjzBcVI+NH5vjuVB5Gxh5m5lmUiWEmSsGNvorh2ZdRPZ8/hTNZ5cqwIJoItKCzFnkMnybHACEmSsClyPxP7skwEe+jYabHvyrjTZ3Jx7kIROaZO8WDLrlWIn64cuHvXiOjdxxR/kkvxYBNOpCv+RFZ/395YsfgDpB0Ow+WMXShIi8HR2LV45/UX0MmlI/nLqXF364xVS+ciLzkSxWfjkHJwA2ZOm0D+MmriE1NRWHSVHFOlkRR8xFxvqMPMD5cjK7eAXKLCtZMLApZ8iBcmjEU7bfN/dw21dVi5NgIRsYfJJVkNHdwXoYFfYEBfn9/MJUnCgaMp+OTLbxU5TOTT91/FvA9mkGNqmv9ToiQ7/yKyFTpJz9PDDZEhy/DSpKdbjBXmn3LLF72HBR/PJJdkM3RwX2wJ+up3sQKARqPBC8+PwcKPZ5FLVBxPzkB1jYEcU9Pyn5TMJEnCkaSfFHuH6IO3XsZ/+Q0jx81qp9Vi9iuTMPKRB8klh7PE2sfHm1z6lUajwbQ//wmDB/Qhl2SXe74QmQr9kIGSwV4pK8fRpJ/IMRW9e3rhxQljodFoyKUWebh3xqxXJ5Fjh7ImVovuXl0w4oHB5Fh2kiRh177jin34UizYjOwLuFZ+kxxT8dSoh+F7X09yfE8jH3nAqpjsYUusSkv9OQ9lOmVeCVck2IaGO9gTr9xW1rAh/W366Wrh6eHW7HVlW9kTa+XNauSdLyTHVNyovIXktCxyTIUiwZaWlSMz9wI5pmZgP/ui6+zaCb17epHjNrEnVkmSsHN/EgqLldtiSvjxDBoUuPOlSLA/ZeTjVrVynzSLSuzb9627Xe/Qyxh7YgWAw8fTEBAUQY6pysy9gNKycnIsO+rBNjTcUfyprAuXfrFrd6JGX+uwmxx2x5qYho8W/VuRPdimblUb8FNGPjmWHfVgr9+oUuzayyI5LQtX7PjpkJ55Hld1N8ixzdoS69xFq5l5BTs5LZv6bgH1YC8U/oIblbfIMVXXym9i35FTNv2U1RvqEBETT45tppZYASDn3CVUUP6zpB7sqbQccqSIkC27cTbHug9+psZGhO+IR3rmOXLJJmqKFeYHly4VXSHHsqIabHWNwepI5Fajr8UbHyzD3viTMDU2ksu/MtTWYenKUKwK2kYu2URtscK8W5F6hu6BG1QffjlXUIxp73yJ2trb5JKi+vv2xvtvTsW4px5DT+9uMN41orj0GqJ3JyBq19E2P7isxlgtxoz0Q9iaL9DZtRO5JAuqwR5OTMP7nweQY1VTc6ww3+beE74KPr26k0uyoHpJkKvw7gBtao8VACoqq+3acbEXtWAbGu4gn4FXLGhxhlhhfj2/oLCEHMuGWrB6Qx0Ki+l+olSKs8RqQfOEdGrBllfeQmWV+r/M2NlihflR0brbdM4toBbszapq1DFyGINcnDFWACivqGrzToq1qAVrMNy26c4Sb5w1VgDQG2rR0HCXHMuCWrBFJWXkSDWcOVYAqK6pRcVNOrdoqQVrYOxmgaM4e6wwn1lQX6+ySwLddWVeqZCTiPX/GE0mam/SUgtWbUSsyhDB2kHEqhxqwQ5S4B16OYhYf6+TS0d49+hGjmVBLdjWTlfhhYi1eRqNBlqt7W8h24NaRZ4ebuSIKyLWlrm4dIBrJxdyLAtqwfbyduzr0TSJWFvX2dWV2g8kasF28XRH+3btyDHzRKz31sOrC1w6diDHsqAWrJubK1w6KXfWqj1ErNbxcO+MDh3ak2NZUAu2h1cXdPFwJ8fMErFar3dPL2qvyFAL1q2zK/r1sf0ANiWIWG1z/6C+5Eg2FIPtZHMASlA6VlaPr2+NKoMFgAeGDiRHTFEyVtdOLli3Yh6S9gbjjWkT4NOrO9pptXBx6YhhQ/ph6fx3kZG4GbOmTyT/U0W5ubniPht/v9qCarD3D/IlR8xQMlaWj6+/l+7dPNGze1dyLJuWf3dkMKh/H3hT/J+zlpKxguHj660xfNggdO3qQY5lQzVYr26eGGDn2axyUTpWVo+vt9aIBwZR3V+nGqy7myuGDxtEjhWjdKxg9Ph6a2k0Gjw84n5yLCuqwQLA2FF+5EgRA/v5KB4rGDy+3hb39e6BIQPpfi6hHuywwf0Vv4719HDDGv95iscKxo6vt5Xfg0PQg/KfJfVge3l3U+TrepqaOvlpPDR8CDlulRyxgqHj6+3x1KiHqF6/QolgXVw6Yvwzj5NjqsY87mfTP8NyxQpGjq+3R9cu7nji0eHkWHbUgwWAJx4djq5d+HiuQM5YwcDx9fZ65I/D0NeOD4ttpUiwA/r54MnH/kiOqUk5k2PVTzW5Y4XCx9e3xdRJT8NFgVvFigTbvl07TB4/mhxTs+fQyXseYEYjVgsljq9vi949vfDoQ9bd6HA0RYIFgNGPjVDky31hvv77dHFgs9eAkiThYMJparFCgePr2+r5Pz1h196xI1A9gZsUGBKNNRtiyDE17m6dseTztzH5udFwd3PFVd0NfL85Dtt2HiF/KTVyH1/fVh06tMeOsH9afSvZ0RQNtrhUh+nvLEZ5RRW5JDBqyvjRWLfiM7RvT3c7y0KxSwKYf5pMfHYUORYYpdFo8MrU5xSLFUoHq9FoMGv6RHh19SSXBAaNe+pRjFJg77UpRYOF+Wn1qZOfJscCY7RaDd5+Tfm3HhQPVqPR4M0Zk9GT0lE3gn0mPfsknnxsBDmmTvFgAWBAXx/Mmf0SORYY4enhhrnv/FXRa1cLJoIFgGkvjrP5gRSBjjdnTMaDw9h4H4+ZYLt18cD8j2ZSO1RMsM7QwX3x9owpNj0sJCdmggWAsU/44a0ZU8ixoBCtVoMln7+L7l5dyCXFMBWsRqPBJ3NeEZcGjJj77jSMfYKNN0QsmAoW5kuDfyyaQ+00PKF5Y0b64f3ZU5m5FLBgLlgAeHjE/fjkvenkWKDE08MNi+e9CQ/3zuSS4pgMFgDefu0FvPaX8eRYkJlWq8GqpXMx/A/svN3cFLPBtm/fDovnvYUxI9m6hlK7hR/PwsRx7D7fwWywMB8Y8a9lH9n9Zqlgm9f+Mh5/m/kic9etTTEdLAD08fFG2Jov0c+3F7kkONDLU57Bks/fYeJuVmuYDxYAhgz0RdA3/yN2DmQyZqQfvl40h9qhxG3BRbAw7xxEfLdUROtgY0b6YcO/FzK5I9AcboKFOdrIkGXi+VkHeWb0I1zFCt6Chfl4nNhN/uKato1envIMQlYv4CpWKP1OV1vorldizmcrkXOu9de1hd97b9ZLWPTJLOY/YDWH22AB4Fa1AQu/DsbhxDRySWiGVqvBsvl/w+xXJzG9ddUaroMFAKPRhO83x2H1d1HkktCEV1dPBAd8jtEjlTtxxxG4D9bidHou5i5cjZu3asglpzdmpB/W+n9K7Ru35aSaYAHgRkUVFn+zEUeOi0sEmG9vL/hoJt59489cXq82R1XBwnzU0IGjKVj09fcw1NaRy07joeFDsMZ/Hgb1v49c4prqgrUw1NZh1fpIbI0+RC6pmrtbZ6z4+wd44fkxrX6FEq9UG6zFxculmL9sPTJzC8glVdFqNZj9ymTM/+h1uLvxtbdqC9UHC/NlQlbeRSwNCL3nMZs8mjltAv77/Ved4mwHpwjWwhJuYEg0fjydSS5zpZNLR8x6ZSLmzJ7qFKFaOFWwTZVdq8CmqP2I2HFY8SMsbdHftzc+fm86powfzcXTVY7mtMFaGI0mZOUVYPP2gzh07DQaG9n77ejezROv//V5zHh5PPr4eHN7l8oRnD7YpoxGE3LPF2Jv/EkcOpaK6zeU+1ohvweH4MWJYzHp2SedPtKmRLCtqK2rR2buBSSdOotTadkouFwiy0/gLp7uGPGHQXj6yYcx7qlHMah/H9Vs9DuaCNZGNfpa6K5X4kJhCfLOF6KqWo/cc4WorjGgoeEOKqt+e2tYq9WgZ49u0Gq1GNjvPvTz7YUHhw3EgL4+GDq4L3p4dRVx2kAEK3BFfbdCBFUTwQpcEcEKXBHBClwRwQpcEcEKXBHBClwRwQpcEcEKXBHBClwRwQpcEcEKXBHBClwRwQpcEcEKXBHBClwRwQpcEcEKXPlf/Na8dB/SjBIAAAAASUVORK5CYII=;fontSize=16;" vertex="1" parent="1">
          <mxGeometry x="95.5" y="109" width="26.6" height="30" as="geometry" />
        </mxCell>
      </root>
    </mxGraphModel>
  </diagram>
</mxfile>
